<?xml version="1.0" encoding="UTF-8"?>
<svg width="70px" height="70px" viewBox="0 0 70 70" version="1.1" xmlns="http://www.w3.org/2000/svg" xmlns:xlink="http://www.w3.org/1999/xlink">
    <title>Logo</title>
    <g id="Circle" stroke="none" stroke-width="1" fill="none" fill-rule="evenodd">
        <g id="Logo" transform="translate(4, 6)">
            <circle id="Background" fill="#F05138" cx="31" cy="29" r="35"></circle>
            <g id="Parrot-with-Eye-Patch" transform="translate(-0.4362, 0.8384)">
                <path d="M45.6180874,32.3821732 C45.6166874,32.3803732 46.804822,28.8127523 49.1371057,26.461761 C53.4801396,22.0838912 51.5660538,17.7191837 51.6577673,15.3457382 C51.7494809,12.9722928 48.8345083,7.2493205 50.4311697,4 C47.6653565,6.65939602 47.7745001,8.54381079 48.2044142,15.111522 C47.691814,13.0345375 47.2035442,8.0526326 47.2644493,7.30340315 C46.4809273,7.9660665 46.3573192,9.87111715 45.7355678,11.7299425 C45.2141993,12.0102684 44.3304741,13.520213 43.8064143,15.4700337 C43.1555155,15.7980444 42.6108286,15.9264867 41.9376808,17.8646571 C41.0909456,18.8585725 40.1058602,19.1371689 40.7213084,22.5036089 C40.5074632,22.3231507 40.1465055,20.9910352 40.1768534,19.362544 C39.2862563,20.0159806 38.1789957,22.1481847 38.1195389,23.3835413 C37.1384993,24.0187808 36.9743838,25.1579125 36.9647896,25.1825332 C36.3704095,24.7052574 35.72375,24.8864634 33.9725382,24.0528127 C34.0405891,24.5135421 34.3155875,25.1514287 34.7975334,25.9664722 C33.6665379,24.0550181 32.8955633,22.9231952 32.4846096,22.5710035 C32.5733888,22.9424554 32.7306656,23.5624711 32.9564402,24.4310506 C30.9276912,21.1784494 28.8491827,18.5859037 26.7209147,16.6534137 C26.549371,16.4860824 26.3250651,17.2759654 26.0479969,19.0230628 C24.0626062,16.6608152 22.5497301,15.1412156 21.5093684,14.464264 C21.5741683,15.2395473 21.5261072,16.1376496 21.3651854,17.1585709 C20.1003,15.2533601 18.5656795,13.8348965 16.7613238,12.9031802 C17.6027469,15.6313427 16.534089,13.136087 12.2093163,11.2758044 C12.1934853,12.2106018 12.4751793,13.1165555 13.0543982,13.9936655 C11.1184025,12.5709986 8.43360305,11.4113927 5,10.5148478 C7.33922675,14.2496739 9.37461517,16.3191066 11.1061653,16.723146 C10.5853765,16.4470057 9.65093303,16.5466237 8.30283489,17.0220002 C8.5192522,17.452341 9.71265312,18.274443 11.8830377,19.488306 C11.7785489,19.4382572 11.5156828,19.6471459 11.0944394,20.1149719 C12.4922192,21.3776587 14.0684692,22.2995254 15.8231895,22.8805721 C14.6374909,23.7921284 14.0139882,24.257961 13.9526814,24.27807 C14.9602038,25.4643063 17.7790532,26.8090575 22.4092297,28.3123237 C21.942957,29.005423 21.5417839,29.4445195 21.2057104,29.6296133 C21.9130786,30.1754157 24.3965193,30.5722719 28.6560323,30.8201817 L29.5282611,32.8405076 C28.7416047,33.5980914 28.1592911,34.2282965 27.7813204,34.7311228 C28.5294048,34.6842507 29.1006429,34.6601408 29.4950347,34.6587934 C28.4742227,35.3721335 27.8226369,35.8580645 27.5402773,36.1165863 C28.2366059,36.0663739 28.5820121,36.1253408 28.5764958,36.2934871 C27.739793,36.7996965 27.2520172,37.1886272 27.1131686,37.4602789 C28.1129873,37.5529195 29.1714275,37.0903351 29.6085659,37.2816247 C25.9845942,37.9114083 26.0660145,39.457789 25.6789529,40.4051519 C24.3373446,40.9385456 24.2963017,41.8739444 24.1486225,42.6250011 C24.0302402,43.2270622 26.0797321,41.8916277 26.39276,41.8361974 C22.2204606,43.5161692 21.9425825,45.8575813 21.669969,46.7886808 C19.9970323,48.1914969 19.435166,49.7247312 19.3283252,50.5784947 C21.5312476,48.7973082 23.5575165,47.5884234 25.4071318,46.9518405 C22.0369229,49.0307451 19.9937159,50.544432 19.2775109,51.4929014 C17.9633984,53.233179 17.1267019,54.6361068 17.3343384,55.0060574 C20.847126,51.9316656 25.0181987,51.0594204 28.062705,50.0333211 C33.1393925,48.3223097 35.2032963,46.902842 37.3813956,43.3368174 C39.072278,40.5684734 40.7426468,38.9811023 40.6606465,38.272609 C43.4559974,40.6265395 44.362392,39.9328896 45.1580149,40.8869157 C45.6989088,41.5354979 46.2923506,41.8293812 46.8651236,41.832499 C46.7399193,41.8287856 46.8232253,42.3486603 45.1678239,42.8301749 C46.2137757,43.5050995 47.6955753,42.9279744 47.918061,42.8264721 C48.99548,42.3349325 49.8085117,41.8231338 50.3905154,39.6711744 C50.7266252,39.5336622 51.913249,38.996341 50.6676865,37.2418903 C48.8942335,34.7438737 47.1495172,33.9845086 45.6180874,32.3821732 Z" id="Parrot" fill="#FFFFFF" fill-rule="nonzero" transform="translate(28.5001, 29.503) rotate(10) translate(-28.5001, -29.503)"></path>
                <g id="Eye-Patch" transform="translate(44.1504, 38.1101)" fill="#000000">
                    <path d="M2.47259571,4.80174554 C3.34604912,4.97984251 3.94899414,4.39335609 3.85103197,3.22009643 C3.81060713,2.73594183 3.65456976,1.87596093 2.44973426,2.09349894 C1.24489876,2.31103696 1.04168698,2.89045617 1.00177564,3.45740387 C0.961864287,4.02435157 1.59914229,4.62364857 2.47259571,4.80174554 Z" id="Oval" transform="translate(2.4307, 3.446) rotate(-8) translate(-2.4307, -3.446)"></path>
                    <path d="M3.00172582,0 C3.13380589,0.146362305 3.2415467,0.284283795 3.33443255,0.410979222 C3.13980397,0.89423019 3.02788876,1.54901238 2.99868693,2.37532579 L2.47798545,2.27222787 C2.56390516,1.1560695 2.73848528,0.398660209 3.00172582,0 Z" id="Rectangle"></path>
                    <path d="M2.9698611,4.70920423 L3.33689921,4.44602784 C3.57632422,4.82737131 3.84033696,5.09121065 4.12893743,5.23754585 C4.03255266,5.44927878 4.00646013,5.50459189 3.92011065,5.65968223 C3.69717709,5.52255657 3.38042724,5.20573057 2.9698611,4.70920423 Z" id="Rectangle-Copy"></path>
                </g>
            </g>
        </g>
    </g>
</svg>